<?xml version="1.0" encoding="UTF-8" standalone="no" ?>
<!DOCTYPE svg PUBLIC "-//W3C//DTD SVG 1.1//EN" "http://www.w3.org/Graphics/SVG/1.1/DTD/svg11.dtd">
<svg xmlns="http://www.w3.org/2000/svg" xmlns:xlink="http://www.w3.org/1999/xlink" version="1.1" width="1080" height="1080" viewBox="0 0 1080 1080" xml:space="preserve">
<desc>Created with Fabric.js 5.2.4</desc>
<defs>
</defs>
<g transform="matrix(1 0 0 1 540 540)" id="c9353acc-5523-4a3f-9c33-a58b73dd0a62"  >
<rect style="stroke: none; stroke-width: 1; stroke-dasharray: none; stroke-linecap: butt; stroke-dashoffset: 0; stroke-linejoin: miter; stroke-miterlimit: 4; fill: rgb(255,255,255); fill-rule: nonzero; opacity: 1; visibility: hidden;" vector-effect="non-scaling-stroke"  x="-540" y="-540" rx="0" ry="0" width="1080" height="1080" />
</g>
<g transform="matrix(1 0 0 1 540 540)" id="a4e42ca6-3a8e-4188-890b-af52d58b5be7"  >
</g>
<g transform="matrix(11.19 0 0 11.19 540 540)" id="Layer_1-2"  >
<path style="stroke: none; stroke-width: 1; stroke-dasharray: none; stroke-linecap: butt; stroke-dashoffset: 0; stroke-linejoin: miter; stroke-miterlimit: 4; fill: rgb(0,0,0); fill-rule: nonzero; opacity: 1;"  transform=" translate(-48.26, -48.26)" d="M 94.16 51.28 L 48.61 5.8 C 46.733892411428556 4.016911055438143 44.52527762673587 2.6203869377324582 42.11 1.6899999999999968 C 39.760889981960844 0.6454638432294231 37.22988088503385 0.0713154709063899 34.660000000000004 1.7763568394002505e-15 L 8.15 0 C 5.988022348634761 -0.017927691349884686 3.914609565495102 0.8577544962937411 2.419999999999998 2.4200000000000026 C 0.8577544962937398 3.9146095654951045 -0.0179276913498847 5.988022348634763 1.7763568394002505e-15 8.150000000000002 L 0 34.65 C 0.07105767829806543 37.21991337797476 0.6452172633334099 39.75097190372226 1.6900000000000048 42.1 C 2.6098392505654227 44.50279893310018 4.008100682010777 46.693748718625265 5.799999999999999 48.540000000000006 L 51.35 94.16 C 52.85213909831901 95.70420024650534 54.92604931798489 96.55837618340088 57.08 96.52 C 59.25024746358815 96.53594528162964 61.33743908706 95.68667420725143 62.879999999999995 94.16 L 94.16 62.82 C 95.70420024650534 61.317860901680994 96.55837618340088 59.24395068201511 96.52 57.09 C 96.53861354006777 54.91629611424219 95.68914167953866 52.82501157624469 94.16 51.28 Z M 26.159999999999997 26.150000000000002 C 24.649307711341596 27.709390856715256 22.560876486033848 28.574442958705813 20.389999999999993 28.540000000000003 C 15.891163544833297 28.534490090000908 12.245509909999091 24.888836455166704 12.239999999999998 20.39 C 12.245509909999088 15.8911635448333 15.89116354483329 12.245509909999097 20.38999999999999 12.24 C 24.888836455166697 12.245509909999091 28.534490090000908 15.8911635448333 28.54 20.39 C 28.571669752555934 22.55741966527078 27.706837870921923 24.641700685443123 26.150000000000002 26.15 Z" stroke-linecap="round" />
</g>
<g transform="matrix(0.66 0.66 -0.66 0.66 558.88 559.27)" style="" id="d711d208-b0b7-4434-8af7-d7f702c35a63"  >
		<text xml:space="preserve" font-family="Raleway" font-size="150" font-style="normal" font-weight="900" style="stroke: none; stroke-width: 1; stroke-dasharray: none; stroke-linecap: butt; stroke-dashoffset: 0; stroke-linejoin: miter; stroke-miterlimit: 4; fill: rgb(255,255,255); fill-rule: nonzero; opacity: 1; white-space: pre;" ><tspan x="-300.23" y="-54.58" >P</tspan><tspan x="-165.53" y="-54.58" >R</tspan><tspan x="-23.03" y="-54.58" >I</tspan><tspan x="65.78" y="-54.58" >C</tspan><tspan x="210.68" y="-54.58" >E</tspan><tspan x="-269.63" y="148.82" >D</tspan><tspan x="-120.98" y="148.82" >R</tspan><tspan x="20.18" y="148.82" >O</tspan><tspan x="176.18" y="148.82" >P</tspan></text>
</g>
</svg>